Coordinates
version=1
nRows=11
nColumns=46
inDegrees=yes

Units are S.I. units (second, meters, Newtons, ...)
Angles are in degrees.

endheader
time	pelvis_tilt	pelvis_list	pelvis_rotation	pelvis_tx	pelvis_ty	pelvis_tz	bb_angle	bb_tx	bb_ty	bb_tz	hip_flexion_r	hip_adduction_r	hip_rotation_r	knee_angle_r	knee_angle_r_beta	ankle_angle_r	subtalar_angle_r	mtp_angle_r	crank_angle_r	hip_flexion_l	hip_adduction_l	hip_rotation_l	knee_angle_l	knee_angle_l_beta	ankle_angle_l	subtalar_angle_l	mtp_angle_l	crank_angle_l	lumbar_extension	lumbar_bending	lumbar_rotation	arm_flex_r	arm_add_r	arm_rot_r	elbow_flex_r	pro_sup_r	wrist_flex_r	wrist_dev_r	arm_flex_l	arm_add_l	arm_rot_l	elbow_flex_l	pro_sup_l	wrist_flex_l	wrist_dev_l
      5.00000000	    -17.16814597	      1.80014828	     -1.66720941	      0.14870533	      1.15008043	     -0.25038752	      0.00000000	      0.50000000	      0.00000000	      0.25000000	     49.24529564	     -1.63624602	      2.99119289	     37.97165985	      0.66273049	      4.55877168	     -4.68232983	      0.00000000	      0.00000000	     86.08603859	     -6.54383863	      3.14505368	    111.70740035	      1.94966194	    -20.60303836	    -11.07412549	      0.00000000	      0.00000000	    -62.55950343	     -3.77523189	     -3.32777793	     89.76754546	    -13.98505043	     32.64789689	     63.05002566	     25.48341855	      0.00000000	      0.00000000	     89.30011996	    -25.92227766	     32.09833676	     68.63892376	     39.98945110	      0.00000000	      0.00000000
      5.00500000	    -17.31315374	      2.08826790	     -1.18601174	      0.14937868	      1.15069851	     -0.24972889	      0.00000000	      0.50000000	      0.00000000	      0.25000000	     48.18654674	     -2.31394512	      2.46772750	     36.92373537	      0.64444075	      4.29353742	     -4.23190392	      0.00000000	      0.00000000	     87.41026324	     -6.23934572	      3.02920260	    112.28505791	      1.95974396	    -20.29869045	    -10.96263189	      0.00000000	      0.00000000	    -62.54532855	     -4.06708250	     -3.89450578	     89.75252723	    -14.28935470	     32.68072698	     63.04345021	     25.50788094	      0.00000000	      0.00000000	     89.31555043	    -25.41337074	     32.16698951	     68.80414558	     40.01414664	      0.00000000	      0.00000000
      5.01000000	    -17.24494797	      2.25709848	     -0.44978259	      0.15023908	      1.15166016	     -0.25015074	      0.00000000	      0.50000000	      0.00000000	      0.25000000	     46.98050726	     -3.27483504	      1.25883661	     36.13304383	      0.63064058	      4.20351558	     -2.89534106	      0.00000000	      0.00000000	     88.47390437	     -5.55815707	      3.07688861	    112.79352721	      1.96861842	    -19.69415078	    -10.12040312	      0.00000000	      0.00000000	    -62.75553213	     -4.16488439	     -3.53889979	     89.74425134	    -17.03522453	     34.12888713	     64.20568589	     26.02079131	      0.00000000	      0.00000000	     89.32067496	    -22.94982413	     31.69352568	     68.17709193	     39.67066401	      0.00000000	      0.00000000
      5.01500000	    -17.25266574	      2.53181476	      0.15573221	      0.15095008	      1.15250570	     -0.24995070	      0.00000000	      0.50000000	      0.00000000	      0.25000000	     45.97454647	     -4.13962675	      0.24608023	     35.53615327	      0.62022288	      4.34059702	     -1.81683674	      0.00000000	      0.00000000	     89.51004506	     -5.09921590	      2.91145824	    113.14832736	      1.97481086	    -19.19297446	     -9.69034319	      0.00000000	      0.00000000	    -62.88483924	     -4.33632345	     -3.82508886	     89.73669554	    -17.88155640	     34.42812130	     64.32800356	     26.17486487	      0.00000000	      0.00000000	     89.33163553	    -21.88485637	     31.59614473	     68.19870718	     39.55975448	      0.00000000	      0.00000000
      5.02000000	    -17.30948393	      2.81699426	      0.84225822	      0.15148094	      1.15339005	     -0.25000969	      0.00000000	      0.50000000	      0.00000000	      0.25000000	     45.19718453	     -5.06435801	     -0.75453240	     35.26623688	      0.61551195	      4.16764100	     -0.90040293	      0.00000000	      0.00000000	     90.50318069	     -4.61159051	      2.62808479	    113.32175976	      1.97783782	    -18.70800449	     -9.40498699	      0.00000000	      0.00000000	    -63.01348212	     -4.46737647	     -4.07498742	     89.72527708	    -19.21631794	     34.91968016	     64.78233741	     26.43320617	      0.00000000	      0.00000000	     89.36267809	    -20.47716041	     31.51124619	     67.96298754	     39.35041148	      0.00000000	      0.00000000
      5.02500000	    -17.40692996	      3.10543444	      1.44094433	      0.15201522	      1.15405876	     -0.24988407	      0.00000000	      0.50000000	      0.00000000	      0.25000000	     44.54868476	     -5.88723852	     -1.64018426	     35.11158612	      0.61281278	      3.75908537	     -0.48992138	      0.00000000	      0.00000000	     91.43904098	     -4.14260096	      2.36984608	    113.39061151	      1.97903951	    -18.22610216	     -9.23636880	      0.00000000	      0.00000000	    -63.05457330	     -4.60584644	     -4.52753097	     89.71522281	    -19.66618584	     34.97428198	     64.71151791	     26.44744653	      0.00000000	      0.00000000	     89.37884030	    -19.80978209	     31.62729554	     68.18802246	     39.36873196	      0.00000000	      0.00000000
      5.03000000	    -17.36465412	      3.45370409	      2.12969351	      0.15259999	      1.15492835	     -0.25016238	      0.00000000	      0.50000000	      0.00000000	      0.25000000	     43.93444963	     -6.98169478	     -2.88673692	     35.40674247	      0.61796423	      4.12909936	      1.11425904	      0.00000000	      0.00000000	     92.11325302	     -3.53942429	      2.03709404	    113.31994013	      1.97780606	    -17.60083690	     -8.72863226	      0.00000000	      0.00000000	    -63.29624088	     -4.74015493	     -4.72482258	     89.70956499	    -21.17860816	     35.60235599	     65.26060238	     26.69114653	      0.00000000	      0.00000000	     89.41063871	    -18.34017882	     31.36899792	     67.90115555	     39.16176070	      0.00000000	      0.00000000
      5.03500000	    -17.45643516	      3.76749170	      2.70156020	      0.15302131	      1.15583703	     -0.25017342	      0.00000000	      0.50000000	      0.00000000	      0.25000000	     43.52642960	     -7.84299284	     -3.73113711	     35.70016024	      0.62308534	      3.79205106	      1.82834181	      0.00000000	      0.00000000	     92.79314015	     -3.07105353	      1.69703574	    113.06920444	      1.97342990	    -17.04567410	     -8.53081011	      0.00000000	      0.00000000	    -63.44262155	     -4.96486877	     -4.66004436	     89.69757088	    -23.16365892	     36.33876871	     66.29065599	     27.09592079	      0.00000000	      0.00000000	     89.44512941	    -16.48608611	     30.80827378	     67.44635452	     38.79168305	      0.00000000	      0.00000000
      5.04000000	    -17.61359311	      3.96290152	      3.27767715	      0.15333902	      1.15648905	     -0.25000772	      0.00000000	      0.50000000	      0.00000000	      0.25000000	     43.35554599	     -8.56279752	     -4.51512627	     36.33808228	      0.63421918	      3.37749395	      1.88536993	      0.00000000	      0.00000000	     93.50010560	     -2.64461559	      1.45349880	    112.67868578	      1.96661406	    -16.57741453	     -8.29083379	      0.00000000	      0.00000000	    -63.45331041	     -4.97936997	     -4.96469609	     89.69385491	    -23.58254715	     36.30418641	     66.30172960	     27.12467018	      0.00000000	      0.00000000	     89.46404487	    -15.97118199	     30.76474046	     67.60806515	     38.77070174	      0.00000000	      0.00000000
      5.04500000	    -17.64320259	      4.37767403	      3.96297592	      0.15355703	      1.15760710	     -0.25045593	      0.00000000	      0.50000000	      0.00000000	      0.25000000	     43.14752070	     -9.63370340	     -5.31320471	     37.17099309	      0.64875622	      3.42984308	      2.64152579	      0.00000000	      0.00000000	     93.88165046	     -1.96640284	      0.97888784	    112.11826527	      1.95683288	    -15.92340359	     -7.98390234	      0.00000000	      0.00000000	    -63.76962411	     -5.11173979	     -4.89583787	     89.68045100	    -25.87527732	     36.94000855	     67.63372954	     27.69408812	      0.00000000	      0.00000000	     89.50600385	    -13.83934398	     29.85327949	     67.02996707	     38.10492971	      0.00000000	      0.00000000
      5.05000000	    -17.77836161	      4.56745478	      4.50660679	      0.15357634	      1.15833773	     -0.25044325	      0.00000000	      0.50000000	      0.00000000	      0.25000000	     43.20564880	    -10.31333166	     -5.89084718	     38.20389597	      0.66678377	      2.87612948	      2.47680495	      0.00000000	      0.00000000	     94.37308058	     -1.49416524	      0.74335585	    111.50681388	      1.94616104	    -15.30520579	     -7.76071860	      0.00000000	      0.00000000	    -63.83558622	     -5.05817504	     -5.21788538	     89.67961755	    -26.14678491	     36.82520213	     67.62740052	     27.70875443	      0.00000000	      0.00000000	     89.52587704	    -13.50447533	     29.79269686	     67.19734185	     38.08555211	      0.00000000	      0.00000000
